<?xml version="1.0" standalone="no"?><!DOCTYPE svg PUBLIC "-//W3C//DTD SVG 1.1//EN" "http://www.w3.org/Graphics/SVG/1.1/DTD/svg11.dtd"><svg class="icon" width="200px" height="200.00px" viewBox="0 0 1024 1024" version="1.1" xmlns="http://www.w3.org/2000/svg"><path fill="#4C79C9" d="M857.21088 717.63968s-127.1808-98.4064-201.40032-204.71808c-100.67968-156.79488-243.63008-92.9792-291.45088-13.27104-47.55456 79.74912-121.7536 130.19136-132.3008 143.54432-10.69056 13.16864-153.64096 90.3168-121.87648 231.23968 31.72352 140.84096 143.13472 138.15808 143.13472 138.15808s82.10432 8.0896 177.39776-13.2096c95.27296-21.15584 177.3568 5.24288 177.3568 5.24288s222.6176 74.56768 283.5456-68.95616c60.80512-143.50336-34.4064-218.03008-34.4064-218.03008z m-396.6976 227.67616h-129.04448c-62.44352-39.36256-87.36768-63.56992-90.48064-70.79936-3.11296-7.35232-20.76672-50.11456-11.40736-108.35968 26.99264-87.47008 104.05888-96.5632 104.05888-96.5632h87.49056v-89.04704l39.38304 0.96256v363.80672z m275.68128 0h-156.93824c-64.53248-39.40352-79.36-77.5168-79.36-77.5168v-184.15616l78.78656-1.04448v165.4784c0 17.59232 26.60352 18.47296 26.60352 18.47296h52.16256v-196.95616h78.7456v275.72224z"  /><path fill="#4C79C9" d="M302.46912 777.60512c-3.25632 9.40032-10.5472 22.95808-4.21888 43.80672 12.45184 46.75584 53.00224 45.1584 53.00224 45.1584h69.85728v-118.19008h-74.01472c-28.03712-0.02048-41.61536 19.8656-44.62592 29.22496zM655.81056 326.88128c82.16576 10.6496 134.98368-77.06624 145.48992-143.52384 10.752-66.3552-42.31168-143.5648-100.49536-156.75392-58.34752-13.37344-131.11296 80.01536-137.78944 140.92288-7.92576 74.4448 10.73152 148.82816 92.79488 159.35488zM390.92224 316.47744c61.50144 0 111.2064-70.77888 111.2064-158.28992 0-87.42912-49.68448-158.16704-111.2064-158.16704-61.39904 0-111.22688 70.7584-111.22688 158.16704 0 87.51104 49.82784 158.28992 111.22688 158.28992zM184.23808 539.60704c111.32928-23.92064 96.21504-156.9792 92.85632-186.0608-5.4272-44.83072-58.20416-123.22816-129.78176-117.0432-90.112 8.06912-103.26016 138.26048-103.26016 138.26048-12.20608 60.14976 29.12256 188.7232 140.1856 164.84352zM981.62688 438.53824c0-31.82592-26.4192-127.5904-124.39552-127.5904-98.2016 0-111.32928 90.35776-111.32928 154.27584 0 61.0304 5.14048 146.14528 127.09888 143.42144 121.89696-2.64192 108.56448-138.09664 108.62592-170.10688z"  /></svg>