<?xml version="1.0" standalone="no"?><!DOCTYPE svg PUBLIC "-//W3C//DTD SVG 1.1//EN" "http://www.w3.org/Graphics/SVG/1.1/DTD/svg11.dtd"><svg class="icon" width="200px" height="200.00px" viewBox="0 0 1024 1024" version="1.1" xmlns="http://www.w3.org/2000/svg"><path fill="#333333" d="M560.097438 512L887.887996 184.208419c13.778818-13.767562 13.778818-36.111452 0-49.877991-13.778818-13.778818-36.100196-13.778818-49.877991 0L510.218424 462.122009 182.426843 134.330428c-13.778818-13.778818-36.100196-13.778818-49.877991 0-13.778818 13.767562-13.778818 36.111452 0 49.877991l327.791581 327.791581-327.791581 327.791581c-13.778818 13.767562-13.778818 36.111452 0 49.877991 6.888897 6.888897 15.914458 10.334369 24.938995 10.334369s18.050098-3.444449 24.938996-10.334369l327.791581-327.791581L838.010005 889.669572c6.888897 6.888897 15.914458 10.334369 24.938996 10.334369s18.050098-3.444449 24.938995-10.334369c13.778818-13.766538 13.778818-36.111452 0-49.877991L560.097438 512z" /></svg>