<?xml version="1.0" standalone="no"?><!DOCTYPE svg PUBLIC "-//W3C//DTD SVG 1.1//EN" "http://www.w3.org/Graphics/SVG/1.1/DTD/svg11.dtd"><svg class="icon" width="200px" height="200.00px" viewBox="0 0 1024 1024" version="1.1" xmlns="http://www.w3.org/2000/svg"><path fill="#333333" d="M66.519508 188.011025l890.958938 0 0 647.978974c-296.933783 0-594.026178 0-890.958938 0L66.519508 188.011025zM138.767995 231.261061c111.124913 109.019972 220.793662 219.836871 332.891739 327.884702 21.221324 24.931832 60.106959 24.77322 81.162508-0.331551 112.096031-108.048855 221.60719-218.533179 332.732104-327.553151C636.571668 231.261061 387.751696 231.261061 138.767995 231.261061zM109.446179 259.285325c-0.158612 168.637792 0 337.099574 0 505.735319 85.370343-84.222193 170.740686-168.461783 255.95344-252.859985C280.186865 427.747107 194.816522 343.524914 109.446179 259.285325zM658.76411 512.160659c85.205591 84.22424 170.418344 168.479179 255.786641 252.704442 0.158612-168.480202 0-336.941985 0-505.412978C829.182454 343.524914 743.968677 427.923116 658.76411 512.160659zM137.96163 793.861506c249.466702 0 498.93545 0 748.401128 0-85.37239-84.399225-170.898275-168.796404-256.269641-253.035994-34.346249 29.963429-63.99143 71.442122-110.318548 82.944084-54.594409 1.470491-87.641059-51.684126-125.70191-82.944084C308.702316 625.065102 223.331973 709.463304 137.96163 793.861506z" /></svg>