<?xml version="1.0" standalone="no"?><!DOCTYPE svg PUBLIC "-//W3C//DTD SVG 1.1//EN" "http://www.w3.org/Graphics/SVG/1.1/DTD/svg11.dtd"><svg class="icon" width="200px" height="199.80px" viewBox="0 0 1025 1024" version="1.1" xmlns="http://www.w3.org/2000/svg"><path fill="#67c0f1" d="M892.852224 639.628288c0 26.43968-7.05024 53.552128-21.136384 81.34656-14.096384 27.792384-34.84672 54.421504-62.267392 79.874048-27.414528 25.472-59.507712 48.31232-96.252928 68.52096-36.75648 20.20864-79.78496 36.343808-129.102848 48.395264-49.323008 12.045312-100.82304 18.079744-154.520576 18.079744-53.69856 0-106.062848-6.51776-157.089792-19.539968-51.037184-13.021184-96.825344-31.090688-137.383936-54.219776-40.557568-23.128064-73.218048-52.482048-97.967104-88.055808-24.76032-35.56352-37.131264-74.341376-37.131264-116.3264 0-44.6976 13.227008-92.321792 39.70048-142.857216 26.468352-50.528256 64.068608-100.675584 112.823296-150.444032 64.352256-65.6896 129.386496-111.5648 195.081216-137.608192 65.687552-26.038272 112.618496-24.685568 140.81024 4.082688 24.75008 24.875008 28.563456 65.508352 11.424768 121.867264-1.527808 5.448704-1.713152 9.330688-0.571392 11.659264 1.142784 2.333696 3.042304 3.700736 5.71392 4.081664 2.656256 0.390144 5.424128 0.297984 8.280064-0.293888 2.85696-0.576512 5.430272-1.255424 7.714816-2.036736l3.427328-1.165312c52.926464-22.938624 99.769344-34.403328 140.522496-34.403328 40.74496 0 69.878784 11.860992 87.402496 35.56864 17.13664 24.486912 17.13664 59.094016 0 103.788544-0.771072 5.05344-1.626112 8.94976-2.568192 11.664384-0.95744 2.71872-0.103424 5.15584 2.568192 7.293952 2.656256 2.134016 4.94592 3.58912 6.854656 4.370432 1.898496 0.781312 5.141504 1.947648 9.710592 3.495936 21.707776 6.995968 41.316352 16.132096 58.83904 27.404288 17.509376 11.280384 32.746496 27.114496 45.696 47.527936C886.373376 592.103424 892.852224 614.757376 892.852224 639.628288L892.852224 639.628288zM716.910592 637.294592c-3.427328-37.316608-20.378624-70.351872-50.840576-99.124224-30.472192-28.768256-70.175744-49.948672-119.104512-63.560704-48.94208-13.607936-101.209088-17.68448-156.807168-12.244992-84.929536 8.94976-155.291648 36.442112-211.075072 82.514944-55.795712 46.055424-81.02912 97.46944-75.687936 154.221568 3.427328 37.322752 20.365312 70.362112 50.840576 99.131392 30.462976 28.772352 70.162432 49.952768 119.104512 63.55456 48.92672 13.618176 101.192704 17.698816 156.806144 12.246016 84.916224-8.93952 155.278336-36.438016 211.075072-82.509824C697.005056 745.460736 722.238464 694.057984 716.910592 637.294592L716.910592 637.294592zM538.681344 730.590208c-17.137664 39.651328-47.224832 68.808704-90.253312 87.463936-43.044864 18.6624-85.68832 20.994048-127.960064 6.998016-40.754176-13.207552-68.834304-37.80096-84.258816-73.756672-15.422464-35.95776-14.19264-72.40192 3.712-109.336576 17.89952-36.150272 46.7456-63.16544 86.546432-81.0496 39.78752-17.87392 79.873024-21.574656 120.247296-11.077632 42.271744 11.278336 72.445952 34.504704 90.540032 69.6832C555.334656 654.696448 555.817984 691.725312 538.681344 730.590208L538.681344 730.590208zM385.590272 738.752512c7.998464-13.206528 10.083328-26.61888 6.284288-40.230912-3.813376-13.607936-12.383232-23.324672-25.706496-29.160448-12.952576-5.438464-26.848256-5.624832-41.701376-0.579584-14.852096 5.054464-26.278912 13.993984-34.275328 26.819584-8.383488 13.216768-10.8544 26.535936-7.425024 39.939072 3.427328 13.421568 11.610112 23.23968 24.563712 29.45024 12.93824 6.2208 27.131904 6.705152 42.555392 1.460224C365.308928 761.202688 377.206784 751.96928 385.590272 738.752512L385.590272 738.752512zM439.287808 668.20096c3.042304-5.04832 3.710976-10.19904 1.9968-15.458304-1.713152-5.238784-5.05344-8.832-9.99424-10.779648-5.342208-1.947648-10.76736-1.846272-16.283648 0.287744-5.522432 2.143232-9.618432 5.741568-12.278784 10.789888-6.483968 12.050432-3.99872 20.795392 7.427072 26.238976 5.325824 1.952768 10.853376 1.850368 16.565248-0.287744C432.432128 676.852736 436.616192 673.255424 439.287808 668.20096L439.287808 668.20096zM953.975808 180.727808c33.132544 37.321728 54.556672 80.571392 64.264192 129.742848 9.710592 49.175552 7.143424 96.115712-7.709696 140.816384-3.427328 10.496-9.906176 18.275328-19.422208 23.323648-9.526272 5.05344-19.423232 5.829632-29.70624 2.333696-10.281984-3.501056-17.903616-10.10688-22.849536-19.827712-4.955136-9.711616-5.90848-19.827712-2.855936-30.32064 10.657792-31.867904 12.567552-65.308672 5.712896-100.29056-6.854656-34.988032-22.093824-65.6896-45.70112-92.132352-23.616512-26.819584-51.792896-45.37856-84.544512-55.68-32.756736-10.302464-65.688576-11.957248-98.822144-4.96128-10.668032 2.332672-20.564992 0.489472-29.705216-5.532672-9.140224-6.029312-14.852096-14.485504-17.13664-25.367552-2.284544-10.88-0.484352-20.892672 5.429248-30.032896 5.89824-9.129984 14.179328-14.866432 24.84736-17.200128 46.84288-10.10688 93.299712-7.865344 139.384832 6.703104C881.231872 116.88448 920.844288 143.030272 953.975808 180.727808L953.975808 180.727808zM792.8832 237.579264c22.468608 7.196672 41.701376 19.926016 57.696256 38.196224 15.99488 18.275328 26.365952 39.361536 31.135744 63.261696 4.75648 23.91552 3.515392 46.749696-3.715072 68.516864-3.05152 8.94976-8.667136 15.550464-16.84992 19.827712-8.198144 4.282368-16.663552 5.05344-25.422848 2.327552-8.764416-3.109888-15.233024-8.836096-19.423232-17.201152-4.194304-8.352768-4.95104-16.995328-2.280448-25.945088 7.612416-24.491008 3.042304-46.066688-13.710336-64.722944-16.765952-18.660352-37.131264-25.45664-61.123584-20.409344-9.140224 1.948672-17.709056 0.386048-25.706496-4.667392-7.998464-5.0432-12.763136-12.244992-14.281728-21.57568-1.908736-9.325568-0.385024-17.972224 4.570112-25.950208 4.94592-7.963648 11.997184-12.914688 21.137408-14.862336C747.758592 229.327872 770.408448 230.391808 792.8832 237.579264L792.8832 237.579264zM792.8832 237.579264" /></svg>