<?xml version="1.0" standalone="no"?><!DOCTYPE svg PUBLIC "-//W3C//DTD SVG 1.1//EN" "http://www.w3.org/Graphics/SVG/1.1/DTD/svg11.dtd"><svg class="icon" width="200px" height="200.00px" viewBox="0 0 1264 1024" version="1.1" xmlns="http://www.w3.org/2000/svg"><path fill="#D81E06" d="M219.274204 18.355741c62.879564 0 113.65113 48.321471 113.65113 107.585813 0 59.132516-50.895403 107.453987-113.65113 107.453987-62.757059 0-113.652462-48.192308-113.652462-107.453987 0-59.26301 50.896734-107.585813 113.652462-107.585813zM314.272653 663.995787c-30.018993 97.945221-22.607455 61.605248-141.694069 334.475286L0 885.025005s192.468298-184.562746 231.99872-268.963201c41.75415-88.958431-46.201606-136.369106-46.201606-136.369106l-132.182638-86.874519 71.404297-115.921463c99.693577 78.016892 107.22762 84.530949 174.430803 155.646296 52.008598 54.834197 45.45992 131.289153 14.824408 231.450112l-0.001331 0.001331z"  /><path fill="#D81E06" d="M1252.023974 791.247609c-33.602257 332.782856-444.231564 209.178214-444.231564 209.178214l22.237277-95.210169 79.680027 21.62209c175.912844 11.851004 143.299946-150.308017 143.299946-150.308017V305.292521c0-178.830322-144.042964-197.325878-432.989088-88.439118l74.984899 8.988122c-5.80566 20.96962-20.01355 79.19134-47.807484 79.191339h357.261172v102.244872H810.388978v102.244871H1004.459159v51.318843H810.387647v205.40054c0-11.460853 65.595974-26.831206 91.909198-47.409343l-17.789822-75.413666 103.151673-33.474426 85.363183 219.989259-125.759129 55.095185-22.237277-87.657483c-56.085876 45.457256-173.071266 110.970673-377.027049 105.23958-218.038504 5.861587-162.076464-273.260189-162.076464-273.260189L391.482611 612.15763h153.184216c-0.989359 51.188349-14.207889 103.938633 3.954773 134.156031 14.69924 24.877788 43.976547 36.078984 68.437552 37.2521 2.71641 0.390151-0.61785 7.555348-0.61785 7.555348V560.842782H373.817957V509.653102H616.438639v-102.244872H577.649903c-50.032543 51.188349-95.61763 102.504529-95.617631 102.504529l-67.078015-61.737075c47.683647-52.88211 95.367295-136.370438 124.645933-192.37775a2882.446517 2882.446517 0 0 0-73.873035 32.953781c-24.953688 32.95245-53.366803 67.076684-84.991674 100.55111 1.111864 1.824256-109.69902-65.385585-109.69902-65.385585C385.553114 220.761572 449.667047-0.006658 449.667047-0.006658l159.482559 47.019192s-13.341035 32.692793-40.394614 82.706694c637.809062-190.292507 674.746911 116.703097 674.746911 116.703097s42.001823 212.04376 8.524734 544.826616l-0.002663-0.001332z"  /></svg>