<?xml version="1.0" standalone="no"?><!DOCTYPE svg PUBLIC "-//W3C//DTD SVG 1.1//EN" "http://www.w3.org/Graphics/SVG/1.1/DTD/svg11.dtd"><svg class="icon" width="200px" height="200.00px" viewBox="0 0 1024 1024" version="1.1" xmlns="http://www.w3.org/2000/svg"><path fill="#333333" d="M853.887113 768.323876c-2.830465-4.441149-69.062935-109.209284-110.606098-152.123676-18.383696-18.983353-38.457894-37.415145-63.241346-35.595706-21.23258 1.558495-38.789445 17.334807-58.965973 35.625382-20.970614 18.886139-33.70566 21.669532-38.267559 24.447809-1.218758-1.167592-117.144-118.557186-149.373029-172.645059-20.331048-34.158984-8.53335-48.02069 45.814442-81.578994 49.619094-30.650067 46.122457-68.485791 35.406395-86.956467-4.145413-5.358031-102.736872-132.670625-149.645229-173.162852-13.234419-11.366885-29.491685-16.792455-47.098691-15.500019-49.632397 3.643993-96.974635 59.579957-101.899808 65.545832-32.80208 37.996382-73.762981 173.530219-19.778462 314.428226 54.052057 141.077086 155.011446 267.3807 308.656779 386.120035 53.088102 41.052998 108.774379 59.796898 165.518754 55.629994 89.654926-6.582929 153.97893-69.12945 171.546028-88.066754 30.643927-33.18582 20.402679-65.524342 11.933797-76.167751M335.886445 160.065556c43.088354 37.136805 140.53985 162.744571 141.133368 162.701592 1.219781 3.668553-1.620917 13.650905-21.185509 25.702382-13.168927 8.239662-28.257577 17.869996-41.72224 29.352515L263.057743 191.225229c16.788361-16.610306 40.204677-34.605146 58.114582-35.921117 5.866614-0.429789 10.385535 1.029446 14.71412 4.761444m196.279339 681.659051c-146.94677-113.632013-243.217371-233.722112-294.305933-366.906438-43.582611-113.703645-16.534582-221.925439 6.007831-260.005732l149.600203 184.734398c-16.261359 22.893406-21.615297 52.260248 1.639336 91.330078 35.015491 58.772568 151.131069 176.277796 157.423379 182.427866 2.996241 2.645247 14.205537 10.82351 33.834596 9.382695 5.455245-0.401136 11.081383-1.711991 16.784269-3.558036l143.921877 183.598528c-22.387893 12.609179-49.279357 23.110347-79.931471 25.360598-45.476751 3.339048-90.855264-12.226462-134.974087-46.363957m277.098015-27.498284c-6.075369 6.585999-19.028379 19.338441-36.965913 32.398897L630.11256 665.465231c6.877641-4.561899 13.831007-9.720386 20.926611-16.143679 10.457166-9.471722 26.333762-23.813359 32.264845-24.248264 1.834788-0.135076 8.234545 1.779529 27.851325 22.099321 38.260395 39.639812 104.340393 143.94132 106.217136 146.785088 0.182149-0.016373 3.76372 7.41283-8.108678 20.268626m0 0z"  /></svg>